# xmcd CD database file
#
# Track frame offsets:
#	150
#	16079
#	35266
#	44923
#	60168
#	74833
#	88248
#
# Disc length: 1539 seconds
#
# Revision: 0
# Processed by: cddbd v1.5.1PL0 Copyright (c) Steve Scherf et al.
# Submitted via: CDex 1.51
#
DISCID=5c060107
DTITLE=Rushad Eggleston and his Wild Band of Snee - Rushad Eggleston and his Wild Band of Snee
DYEAR=2004
DGENRE=Jazz
TTITLE0=Goblarck and Crick
TTITLE1=Cat and Dog
TTITLE2=Gree-himfeny
TTITLE3=In the Basement
TTITLE4=Town of Blarck
TTITLE5=Back in the Nork
TTITLE6=In Bed
EXTD=YEAR: 2004
EXTT0=
EXTT1=
EXTT2=
EXTT3=
EXTT4=
EXTT5=
EXTT6=
PLAYORDER=
